g UnderArena
v -5.210978 -0.04904852 -3.109098
v -4.992159 -0.04904853 -3.125184
v 4.718896E-07 -0.04904853 -3.125183
v -9.487267E-07 -0.04904656 3.125183
v -5.425342 -0.04904851 -3.061167
v -5.630888 -0.04904848 -2.982367
v -5.823432 -0.04904845 -2.874302
v -5.999053 -0.04904841 -2.739173
v -6.154176 -0.04904836 -2.579729
v -6.285645 -0.0490483 -2.399216
v -6.390781 -0.04904823 -2.20131
v -6.467446 -0.04904817 -1.99004
v -6.514078 -0.0490481 -1.769705
v -6.529729 -0.04904803 -1.544791
v -6.529729 -0.04904706 1.544788
v -6.514079 -0.04904699 1.769702
v -6.467447 -0.04904692 1.990037
v -6.390782 -0.04904686 2.201308
v -6.285645 -0.04904679 2.399214
v -6.154178 -0.04904673 2.579726
v -5.999053 -0.04904668 2.73917
v -5.823433 -0.04904664 2.8743
v -5.630889 -0.04904661 2.982365
v -5.425343 -0.04904658 3.061165
v -5.210979 -0.04904657 3.109096
v -4.99216 -0.04904656 3.125182
vt 0.2180274 0.7818201
vt 0.2180274 0.7818201
vt 0.2180274 0.7818201
vt 0.2180274 0.7818201
vt 0.2180274 0.7818201
vt 0.2180274 0.7818201
vt 0.2180274 0.7818201
vt 0.2180274 0.7818201
vt 0.2180274 0.7818201
vt 0.2180274 0.7818201
vt 0.2180274 0.7818201
vt 0.2180274 0.7818201
vt 0.2180274 0.7818201
vt 0.2180274 0.7818201
vt 0.2180274 0.7818201
vt 0.2180274 0.7818201
vt 0.2180274 0.7818201
vt 0.2180274 0.7818201
vt 0.2180274 0.7818201
vt 0.2180274 0.7818201
vt 0.2180274 0.7818201
vt 0.2180274 0.7818201
vt 0.2180274 0.7818201
vt 0.2180274 0.7818201
vt 0.2180274 0.7818201
vt 0.2180274 0.7818201
vn 0 1 0
vn 0 1 0
vn 0 1 0
vn 0 1 0
vn 0 1 0
vn 0 1 0
vn 0 1 0
vn 0 1 0
vn 0 1 0
vn 0 1 0
vn 0 1 0
vn 0 1 0
vn 0 1 0
vn 0 1 0
vn 0 1 0
vn 0 1 0
vn 0 1 0
vn 0 1 0
vn 0 1 0
vn 0 1 0
vn 0 1 0
vn 0 1 0
vn 0 1 0
vn 0 1 0
vn 0 1 0
vn 0 1 0
g UnderArena_0
f 3/3/3 2/2/2 1/1/1
f 1/1/1 4/4/4 3/3/3
f 1/1/1 5/5/5 4/4/4
f 5/5/5 6/6/6 4/4/4
f 6/6/6 7/7/7 4/4/4
f 7/7/7 8/8/8 4/4/4
f 8/8/8 9/9/9 4/4/4
f 9/9/9 10/10/10 4/4/4
f 10/10/10 11/11/11 4/4/4
f 11/11/11 12/12/12 4/4/4
f 12/12/12 13/13/13 4/4/4
f 13/13/13 14/14/14 4/4/4
f 14/14/14 15/15/15 4/4/4
f 15/15/15 16/16/16 4/4/4
f 16/16/16 17/17/17 4/4/4
f 17/17/17 18/18/18 4/4/4
f 18/18/18 19/19/19 4/4/4
f 19/19/19 20/20/20 4/4/4
f 20/20/20 21/21/21 4/4/4
f 21/21/21 22/22/22 4/4/4
f 22/22/22 23/23/23 4/4/4
f 23/23/23 24/24/24 4/4/4
f 24/24/24 25/25/25 4/4/4
f 25/25/25 26/26/26 4/4/4
